<?xml version="1.0" encoding="UTF-8" standalone="no"?>
<!DOCTYPE svg PUBLIC "-//W3C//DTD SVG 1.1//EN" "http://www.w3.org/Graphics/SVG/1.1/DTD/svg11.dtd">
<svg width="361px" height="361px" version="1.1" xmlns="http://www.w3.org/2000/svg" xmlns:xlink="http://www.w3.org/1999/xlink" xml:space="preserve" xmlns:serif="http://www.serif.com/" style="fill-rule:evenodd;clip-rule:evenodd;stroke-linecap:round;stroke-linejoin:round;stroke-miterlimit:1.5;">
    <g transform="matrix(1,0,0,1,-1521.67,-502.536)">
        <g transform="matrix(0.561052,0,0,0.769723,2011.79,694.078)">
            <path d="M-872.686,172.736L-872.686,-201.425C-872.686,-227.238 -843.934,-248.195 -808.52,-248.195L-295.199,-248.195C-259.785,-248.195 -231.034,-227.238 -231.034,-201.425L-231.034,172.736C-231.034,198.549 -259.785,219.506 -295.199,219.506L-808.52,219.506C-843.934,219.506 -872.686,198.549 -872.686,172.736ZM-699.44,112.004L-699.44,111.935C-699.44,64.141 -656.586,23.586 -597.382,9.587C-598.356,5.522 -599.734,1.457 -601.534,-2.58C-603.334,-6.617 -605.496,-10.496 -607.986,-14.202C-667.172,-0.162 -734.545,-14.612 -773.086,-53.278L-773.142,-53.334C-824.274,-33.697 -850.18,10.521 -831.719,51.936C-813.258,93.35 -756.642,118.024 -699.44,112.004ZM-845.855,-27.23C-832.459,-44.959 -812.227,-59.981 -786.777,-69.981C-799.296,-88.964 -803.552,-109.773 -800.104,-129.844C-826.412,-99.883 -842.793,-64.854 -845.855,-27.23ZM-442.23,205.475L-310.599,205.475C-277.31,205.475 -250.283,185.775 -250.283,161.511L-250.283,65.565C-282.661,130.393 -353.29,181.874 -442.23,205.475ZM-356.371,-60.643C-403.138,-69.618 -451.502,-57.236 -480.781,-31.178C-436.081,-22.641 -386.968,-33.345 -356.371,-60.643ZM-324.521,122.079C-349.626,130.653 -378.064,134.123 -406.673,131.314C-411.862,152.071 -425.236,170.758 -444.264,185.53C-397.258,172.061 -356.136,150.03 -324.521,122.079ZM-250.283,-94.254L-250.283,-190.2C-250.283,-214.464 -277.31,-234.164 -310.599,-234.164L-442.23,-234.164C-415.164,-226.982 -389.793,-217.217 -366.68,-205.281C-365.54,-204.711 -364.408,-204.129 -363.283,-203.533C-362.002,-202.855 -360.741,-202.165 -359.499,-201.463C-310.127,-174.442 -271.777,-137.289 -250.283,-94.254ZM-303.616,-129.844C-300.167,-109.773 -304.424,-88.964 -316.942,-69.981C-291.492,-59.981 -271.26,-44.959 -257.864,-27.23C-260.926,-64.854 -277.308,-99.883 -303.616,-129.844ZM-432.607,127.006L-432.698,126.984C-495.058,112.215 -534.731,69.975 -534.702,24.608C-540.307,24.027 -546.036,23.726 -551.86,23.726C-557.684,23.726 -563.412,24.027 -569.018,24.608C-568.988,69.975 -608.662,112.215 -671.022,126.984L-671.113,127.006C-661.291,168.52 -611.602,200.143 -551.86,200.143C-492.118,200.143 -442.429,168.52 -432.607,127.006ZM-431.041,106.866C-433.782,71.673 -464.883,41.971 -507.931,29.727C-505.257,63.353 -476.114,94.091 -431.041,106.866ZM-661.489,-234.164L-793.121,-234.164C-826.41,-234.164 -853.436,-214.464 -853.436,-190.2L-853.436,-94.254C-831.942,-137.289 -793.593,-174.442 -744.22,-201.463C-742.978,-202.165 -741.717,-202.855 -740.436,-203.533C-739.312,-204.129 -738.179,-204.711 -737.039,-205.281C-713.927,-217.217 -688.556,-226.982 -661.489,-234.164ZM-853.436,65.565L-853.436,161.511C-853.436,185.775 -826.41,205.475 -793.121,205.475L-661.489,205.475C-750.429,181.874 -821.058,130.393 -853.436,65.565ZM-330.578,-53.334L-330.634,-53.278C-369.174,-14.612 -436.548,-0.162 -495.733,-14.202C-498.223,-10.496 -500.386,-6.617 -502.186,-2.58C-503.985,1.457 -505.363,5.522 -506.338,9.587C-447.134,23.586 -404.28,64.141 -404.28,111.935L-404.28,112.004C-347.077,118.024 -290.462,93.35 -272,51.936C-253.539,10.521 -279.445,-33.697 -330.578,-53.334ZM-672.678,106.866C-627.605,94.091 -598.462,63.353 -595.789,29.727C-638.836,41.971 -669.938,71.673 -672.678,106.866ZM-626.006,-222.147C-598.694,-218.349 -572.8,-208.96 -551.86,-194.388C-530.919,-208.96 -505.026,-218.349 -477.714,-222.147C-501.406,-226.632 -526.253,-229.019 -551.86,-229.019C-577.466,-229.019 -602.313,-226.632 -626.006,-222.147ZM-747.348,-60.643C-716.751,-33.345 -667.638,-22.641 -622.938,-31.178C-652.217,-57.236 -700.581,-69.618 -747.348,-60.643ZM-551.86,-164.169C-578.023,-134.523 -576.812,-97.169 -551.86,-68.82C-526.907,-97.169 -525.697,-134.523 -551.86,-164.169ZM-762.322,-77.607L-762.231,-77.628C-699.871,-92.397 -633.712,-75.222 -597.152,-38.506C-592.149,-40.438 -587.272,-42.649 -582.56,-45.144C-577.848,-47.64 -573.456,-50.337 -569.39,-53.209C-605.998,-89.899 -607.964,-141.069 -569.423,-179.735L-569.367,-179.792C-610.79,-209.169 -676.49,-213.464 -724.822,-187.869C-773.155,-162.273 -787.853,-115.401 -762.322,-77.607ZM-534.353,-179.792L-534.297,-179.735C-495.756,-141.069 -497.721,-89.899 -534.33,-53.209C-530.263,-50.337 -525.871,-47.64 -521.159,-45.144C-516.448,-42.649 -511.571,-40.438 -506.567,-38.506C-470.007,-75.222 -403.848,-92.397 -341.488,-77.628L-341.397,-77.607C-315.866,-115.401 -330.565,-162.273 -378.897,-187.869C-427.229,-213.464 -492.929,-209.169 -534.353,-179.792ZM-659.456,185.53C-678.484,170.758 -691.857,152.071 -697.047,131.314C-725.656,134.123 -754.094,130.653 -779.198,122.079C-747.583,150.03 -706.462,172.061 -659.456,185.53Z" style="stroke:black;stroke-width:0.3px;"/>
        </g>
        <g transform="matrix(0.223181,0,0,0.21251,1721.11,662.988)">
            <g>
                <ellipse cx="-84.851" cy="94.345" rx="26.615" ry="27.952" style="fill:white;stroke:black;stroke-width:0.92px;"/>
            </g>
        </g>
    </g>
</svg>
